name kinematics_mean_var
datacolumns 19
datarows 23
range 0.5698000000 0.8205120000
endheader
time	q_pelvis_tx_mean	q_pelvis_tx_var	q_pelvis_ty_mean	q_pelvis_ty_var	q_pelvis_tilt_mean	q_pelvis_tilt_var	hip_flexion_l_mean	hip_flexion_l_var	knee_angle_r_mean	knee_angle_r_var	ankle_angle_l_mean	ankle_angle_l_var	hip_flexion_r_mean	hip_flexion_r_var	knee_angle_l_mean	knee_angle_l_var	ankle_angle_r_mean	ankle_angle_r_var
0.5698000000	0.0000000000	0.0000000000	0.0000000000	0.0000000000	0.0000000000	0.0000000000	-10.6100000000	68.0625000000	-13.8600000000	25.5025000000	7.2000000000	31.9225000000	19.3300000000	31.8096000000	-3.9700000000	17.5561000000	0.0200000000	15.4449000000
0.5811960000	0.0000000000	0.0000000000	0.0000000000	0.0000000000	0.0000000000	0.0000000000	-10.7800000000	70.2413000000	-15.4150000000	26.3754500000	5.9450000000	34.6884500000	19.1250000000	32.6668500000	-5.4850000000	19.2662500000	-1.0200000000	17.2272500000
0.5925920000	0.0000000000	0.0000000000	0.0000000000	0.0000000000	0.0000000000	0.0000000000	-10.9500000000	72.4201000000	-16.9700000000	27.2484000000	4.6900000000	37.4544000000	18.9200000000	33.5241000000	-7.0000000000	20.9764000000	-2.0600000000	19.0096000000
0.6039880000	0.0000000000	0.0000000000	0.0000000000	0.0000000000	0.0000000000	0.0000000000	-10.9300000000	74.1421000000	-18.9650000000	28.6942500000	2.9200000000	40.2440000000	18.6850000000	33.4085000000	-8.7600000000	21.9602500000	-2.9700000000	18.8360000000
0.6153840000	0.0000000000	0.0000000000	0.0000000000	0.0000000000	0.0000000000	0.0000000000	-10.9100000000	75.8641000000	-20.9600000000	30.1401000000	1.1500000000	43.0336000000	18.4500000000	33.2929000000	-10.5200000000	22.9441000000	-3.8800000000	18.6624000000
0.6267800000	0.0000000000	0.0000000000	0.0000000000	0.0000000000	0.0000000000	0.0000000000	-10.6100000000	76.7401000000	-23.4800000000	32.2398500000	-1.0250000000	45.1152500000	18.1950000000	32.5512500000	-12.3200000000	23.8722500000	-4.2400000000	17.4114000000
0.6381760000	0.0000000000	0.0000000000	0.0000000000	0.0000000000	0.0000000000	0.0000000000	-10.3100000000	77.6161000000	-26.0000000000	34.3396000000	-3.2000000000	47.1969000000	17.9400000000	31.8096000000	-14.1200000000	24.8004000000	-4.6000000000	16.1604000000
0.6495720000	0.0000000000	0.0000000000	0.0000000000	0.0000000000	0.0000000000	0.0000000000	-9.6550000000	76.8272500000	-29.0150000000	36.3898000000	-5.6850000000	47.6109000000	17.6200000000	31.3616000000	-15.7500000000	25.4562500000	-4.2900000000	15.8814500000
0.6609680000	0.0000000000	0.0000000000	0.0000000000	0.0000000000	0.0000000000	0.0000000000	-9.0000000000	76.0384000000	-32.0300000000	38.4400000000	-8.1700000000	48.0249000000	17.3000000000	30.9136000000	-17.3800000000	26.1121000000	-3.9800000000	15.6025000000
0.6723640000	0.0000000000	0.0000000000	0.0000000000	0.0000000000	0.0000000000	0.0000000000	-7.9750000000	73.2152500000	-35.3850000000	39.0650000000	-10.6100000000	46.0572500000	16.8500000000	31.3052500000	-18.6100000000	26.1632500000	-3.1900000000	16.0025000000
0.6837600000	0.0000000000	0.0000000000	0.0000000000	0.0000000000	0.0000000000	0.0000000000	-6.9500000000	70.3921000000	-38.7400000000	39.6900000000	-13.0500000000	44.0896000000	16.4000000000	31.6969000000	-19.8400000000	26.2144000000	-2.4000000000	16.4025000000
0.6951560000	0.0000000000	0.0000000000	0.0000000000	0.0000000000	0.0000000000	0.0000000000	-5.6000000000	65.9288500000	-42.1700000000	38.1462500000	-15.0900000000	41.2028500000	15.7900000000	32.7265000000	-20.5550000000	26.4716500000	-1.4250000000	16.2413000000
0.7065520000	0.0000000000	0.0000000000	0.0000000000	0.0000000000	0.0000000000	0.0000000000	-4.2500000000	61.4656000000	-45.6000000000	36.6025000000	-17.1300000000	38.3161000000	15.1800000000	33.7561000000	-21.2700000000	26.7289000000	-0.4500000000	16.0801000000
0.7179480000	0.0000000000	0.0000000000	0.0000000000	0.0000000000	0.0000000000	0.0000000000	-2.6500000000	56.4372500000	-48.8250000000	33.5917000000	-18.3250000000	36.6221000000	14.4250000000	34.5198500000	-21.4700000000	27.6222500000	0.5000000000	15.2981000000
0.7293440000	0.0000000000	0.0000000000	0.0000000000	0.0000000000	0.0000000000	0.0000000000	-1.0500000000	51.4089000000	-52.0500000000	30.5809000000	-19.5200000000	34.9281000000	13.6700000000	35.2836000000	-21.6700000000	28.5156000000	1.4500000000	14.5161000000
0.7407400000	0.0000000000	0.0000000000	0.0000000000	0.0000000000	0.0000000000	0.0000000000	0.6850000000	46.6349000000	-54.7950000000	27.7405000000	-19.6450000000	34.3421000000	12.8200000000	35.0468000000	-21.4450000000	29.9938500000	2.2450000000	13.5948500000
0.7521360000	0.0000000000	0.0000000000	0.0000000000	0.0000000000	0.0000000000	0.0000000000	2.4200000000	41.8609000000	-57.5400000000	24.9001000000	-19.7700000000	33.7561000000	11.9700000000	34.8100000000	-21.2200000000	31.4721000000	3.0400000000	12.6736000000
0.7635320000	0.0000000000	0.0000000000	0.0000000000	0.0000000000	0.0000000000	0.0000000000	4.1750000000	37.7504500000	-59.6000000000	23.7313000000	-18.9450000000	32.3905000000	11.0900000000	33.8214500000	-20.7100000000	32.8473000000	3.6550000000	11.9816000000
0.7749280000	0.0000000000	0.0000000000	0.0000000000	0.0000000000	0.0000000000	0.0000000000	5.9300000000	33.6400000000	-61.6600000000	22.5625000000	-18.1200000000	31.0249000000	10.2100000000	32.8329000000	-20.2000000000	34.2225000000	4.2700000000	11.2896000000
0.7863240000	0.0000000000	0.0000000000	0.0000000000	0.0000000000	0.0000000000	0.0000000000	7.5750000000	30.4442000000	-62.8900000000	23.4337000000	-16.7050000000	28.3142500000	9.3450000000	31.9289000000	-19.5300000000	34.8125000000	4.7000000000	10.8936000000
0.7977200000	0.0000000000	0.0000000000	0.0000000000	0.0000000000	0.0000000000	0.0000000000	9.2200000000	27.2484000000	-64.1200000000	24.3049000000	-15.2900000000	25.6036000000	8.4800000000	31.0249000000	-18.8600000000	35.4025000000	5.1300000000	10.4976000000
0.8091160000	0.0000000000	0.0000000000	0.0000000000	0.0000000000	0.0000000000	0.0000000000	10.6650000000	24.9054500000	-64.4900000000	26.7865000000	-13.6650000000	22.7030500000	7.6100000000	30.4729000000	-18.1050000000	34.8125000000	5.4200000000	10.3368500000
0.8205120000	0.0000000000	0.0000000000	0.0000000000	0.0000000000	0.0000000000	0.0000000000	12.1100000000	22.5625000000	-64.8600000000	29.2681000000	-12.0400000000	19.8025000000	6.7400000000	29.9209000000	-17.3500000000	34.2225000000	5.7100000000	10.1761000000
